<?xml version="1.0" encoding="utf-8"?>
<!-- Svg Vector Icons : http://www.onlinewebfonts.com/icon -->
<!DOCTYPE svg PUBLIC "-//W3C//DTD SVG 1.1//EN" "http://www.w3.org/Graphics/SVG/1.1/DTD/svg11.dtd">
<svg version="1.1" xmlns="http://www.w3.org/2000/svg" xmlns:xlink="http://www.w3.org/1999/xlink" x="0px" y="0px" viewBox="0 0 1000 1000" enable-background="new 0 0 1000 1000" xml:space="preserve">
<metadata> Svg Vector Icons : http://www.onlinewebfonts.com/icon </metadata>
<g><g transform="translate(0.000000,389.000000) scale(0.100000,-0.100000)"><path d="M3309.1,2528.8c-180.1-80.5-205-99.6-423.4-318l-231.8-229.9L1569.5,1841c-597.7-78.5-1101.6-151.3-1124.6-162.8c-21.1-11.5-44.1-44.1-51.7-72.8c-7.7-28.7,17.3-348.7,53.6-712.7c74.7-768.3,78.6-1040.3,19.2-1523.1c-63.2-500-153.3-1019.2-205-1168.7c-92-264.4-101.5-567.1-32.6-1076.7l30.6-235.7l-80.5-86.2l-78.6-86.2v-578.6c0-524.9,3.8-588.2,36.4-657.1c42.2-90,122.6-170.5,199.2-199.2c36.4-13.4,461.7-21.1,1285.5-21.1h1231.9l38.3,42.1c21.1,24.9,63.2,132.2,92,239.5c28.7,107.3,59.4,203.1,65.1,212.7c7.7,11.5,369.8-47.9,883.2-141.8c479-88.1,873.6-160.9,875.6-160.9c1.9,0,7.7-36.4,15.3-80.5c9.6-47.9,34.5-101.5,65.1-132.2c51.7-49.8,59.4-51.7,377.4-65.1c396.6-19.2,1147.6,0,1622.7,38.3c1289.4,105.4,2247.3,362.1,2858.5,768.3c176.3,116.9,174.3,109.2,124.5,492.4c-23,182-49.8,344.9-59.4,362.1c-9.6,17.3-42.2,49.8-72.8,70.9c-46,32.6-55.5,55.5-67.1,157.1c-5.7,65.1-36.4,189.7-67.1,277.8c-122.6,360.2-390.8,599.7-791.2,708.9c-99.6,28.7-214.6,34.5-638,38.3c-787.4,3.8-1285.5,97.7-1737.7,325.7c-111.1,55.5-136,78.5-176.3,157.1c-24.9,49.8-86.2,149.5-134.1,222.2c-84.3,126.4-86.2,132.2-74.7,243.3c9.6,92,5.7,120.7-21.1,149.4c-47.9,53.6-120.7,65.1-185.8,32.6c-57.5-28.7-59.4-26.8-172.4,59.4c-80.5,63.2-111.1,97.7-101.6,118.8c5.8,17.2,15.3,61.3,21.1,97.7c7.7,53.6,0,76.6-40.2,113c-72.8,67.1-159,63.2-222.2-13.4l-49.8-61.3l-76.6,30.7c-59.4,23-82.4,46-109.2,111.1c-26.8,65.1-95.8,136-320,329.5c-191.6,164.8-287.4,260.6-287.4,285.5c0,153.3-80.5,1341.1-97.7,1421.6c-38.3,197.3-191.6,346.8-396.6,390.8c-59.4,13.4-111.1,24.9-115,28.7c-3.8,1.9-26.8,78.6-51.7,170.5c-55.6,201.2-88.1,252.9-172.4,289.3C3556.2,2630.4,3517.9,2624.6,3309.1,2528.8z M3613.7,2302.8c42.2-143.7,40.2-153.3-26.8-139.9c-30.7,7.7-111.1,17.2-178.2,24.9c-118.8,11.5-122.6,11.5-170.5-46c-26.8-32.6-53.6-67.1-57.5-76.6c-1.9-9.6-44.1-23-90-28.7l-84.3-9.6l122.6,124.5c86.2,88.1,162.9,143.7,256.7,189.7C3569.6,2427.3,3579.2,2425.4,3613.7,2302.8z M3732.5,1835.3c251-38.3,316.1-65.1,348.7-151.4c15.3-42.1,82.4-944.5,80.5-1111.2c0-38.3-5.7-40.2-69-21.1c-153.3,42.1-197.3,17.2-532.6-300.8c-565.2-536.4-605.4-584.3-605.4-726.1c0-134.1,32.6-174.3,500-613.1c364-342.9,477-436.8,536.4-452.1c88.1-24.9,183.9-9.6,251,34.5c24.9,19.2,206.9,206.9,406.2,419.6c197.3,214.6,365.9,388.9,375.5,388.9c38.3,0,153.3-65.1,153.3-86.2c0-13.4-17.2-72.8-38.3-134.1c-49.8-145.6-47.9-193.5,9.6-249.1c97.7-99.6,220.3-47.9,270.1,115c19.2,57.5,38.3,105.4,44.1,105.4c5.7,0,61.3-46,122.6-101.5l111.1-99.6l-40.2-134.1c-47.9-168.6-47.9-203.1,1.9-266.3c57.5-72.8,157.1-69,229.9,9.6l53.7,57.5l55.5-111.1l57.5-111.1l-28.7-201.2c-15.3-109.2-28.7-203.1-32.6-205c-5.8-5.7-5245.6,1090.1-5259,1097.8c-3.8,3.8,13.4,162.8,38.3,356.4c26.8,226.1,44.1,463.6,44.1,668.6l1.9,318l1097.8,13.4c1023.1,11.5,1105.5,15.3,1199.3,49.8c120.7,46,243.3,166.7,300.8,297c42.1,93.9,42.1,105.4,28.7,636.1c-13.4,515.4-11.5,542.2,21.1,542.2C3485.3,1869.8,3606,1852.5,3732.5,1835.3z M3228.6,1693.5c5.8-24.9,13.4-233.7,15.3-465.6c5.7-454.1,0-484.7-101.5-576.7c-95.8-88.1-86.2-88.1-1239.6-103.5c-607.3-9.6-1109.3-11.5-1115-3.8c-9.6,9.6-53.6,469.4-80.5,827.7l-3.8,47.9l1187.8,155.2c653.3,86.2,1218.5,157.1,1256.8,159C3205.6,1735.7,3220.9,1728,3228.6,1693.5z M4477.7-9.7c231.8-201.2,427.2-383.2,436.8-404.2c21.1-57.5-26.8-118.8-433-551.8c-256.7-272.1-364-375.5-400.4-379.3c-42.1-5.7-120.7,61.3-482.8,400.4c-237.6,224.2-434.9,421.5-434.9,436.8c-1.9,17.2-1.9,44.1,0,59.4c1.9,15.3,182,203.1,400.4,415.7c298.9,293.1,408.1,388.9,444.5,388.9C4042.8,356.2,4169.3,258.5,4477.7-9.7z M3439.3-1789.5C5477.8-2216.8,6106.2-2341.3,6133-2326c47.9,24.9,51.7,42.2,80.4,283.5c13.4,107.3,28.8,195.4,36.4,195.4s70.9-26.8,141.8-57.5c490.5-224.2,977.1-310.4,1764.5-316.1c494.3-3.8,546-7.6,649.5-46c159-57.5,260.5-118.8,350.6-218.4c139.9-151.4,216.5-362.1,216.5-593.9v-124.5l-243.3-78.5c-680.1-216.5-1268.3-342.9-2074.9-450.2c-684-90-1007.7-113-1475.2-101.6c-465.5,11.5-593.9,26.8-1161,145.6c-898.5,187.7-1461.8,274-2086.4,318c-231.8,17.3-549.9,47.9-708.9,67.1c-327.6,42.1-304.6,26.8-429.2,277.8C1017.7-2667,810.8-1912.1,720.7-1302.9c-11.5,84.3-9.6,92,23,80.5C764.8-1228.2,1975.6-1483,3439.3-1789.5z M617.3-1864.2c0-61.3,149.4-622.7,220.3-825.8c38.3-111.1,103.5-274,145.6-362.1c40.2-88.1,74.7-162.9,74.7-164.8c0-5.7-467.5,88.1-475.1,95.8c-13.4,13.4-63.2,354.4-82.4,574.8c-23,274-5.7,503.9,51.7,655.2C582.8-1810.6,617.3-1797.2,617.3-1864.2z M1182.5-3444.8c358.3-61.3,710.8-99.6,1130.4-126.5c544.1-34.5,1208.9-136,2021.2-306.5c992.4-208.8,1412-222.2,2605.6-76.6c873.6,107.3,1643.8,274,2337.4,507.7c141.8,47.9,258.6,86.2,260.5,86.2c1.9,0,13.4-86.2,26.8-191.6c21.1-153.3,21.1-195.4,0-218.4c-38.3-47.9-509.6-272.1-720.4-344.9c-544.1-185.8-1270.2-314.2-2103.6-375.5c-398.5-28.7-1241.5-46-1452.2-30.6l-185.8,15.3l-11.5,76.6c-26.8,151.4,9.6,139.9-1134.2,348.7c-913.9,168.6-1046,187.8-1086.3,164.8c-55.6-28.7-70.9-63.2-143.7-316.1l-53.6-191.6H1544.6H416.1l-5.7,515.4c-3.8,496.2-3.8,517.3,34.5,557.5l38.3,40.2l206.9-42.1C803.1-3377.8,1025.4-3419.9,1182.5-3444.8z"/><path d="M3747.8,1716.5c-53.6-21.1-103.5-92-103.5-149.4c0-69,36.4-118.8,105.4-149.4c170.5-70.9,302.7,149.4,160.9,268.2C3849.3,1737.6,3814.9,1743.3,3747.8,1716.5z"/><path d="M3824.4,1046c-103.5-42.2-132.2-174.3-57.5-260.6c95.8-113,279.7-42.1,279.7,107.3C4046.7,1005.7,3926,1088.1,3824.4,1046z"/><path d="M3858.9-143.8C3560-295.2,3583-728.1,3897.2-858.4c243.3-101.5,530.7,93.9,532.6,364c0,109.2-80.5,260.6-174.3,325.7C4146.3-94,3977.7-82.5,3858.9-143.8z"/></g></g>
</svg>